<?xml version="1.0" encoding="UTF-8"?>
<svg id="Layer_1" xmlns="http://www.w3.org/2000/svg" version="1.1" xmlns:xlink="http://www.w3.org/1999/xlink" viewBox="0 0 156 40">
  <!-- Generator: Adobe Illustrator 29.7.1, SVG Export Plug-In . SVG Version: 2.1.1 Build 8)  -->
  <defs>
    <style>
      .st0 {
        fill: url(#linear-gradient2);
      }

      .st1 {
        fill: url(#linear-gradient1);
      }

      .st2 {
        fill: #e5c349;
      }

      .st3 {
        fill: url(#linear-gradient7);
      }

      .st4 {
        fill: url(#linear-gradient4);
      }

      .st5 {
        fill: url(#linear-gradient5);
      }

      .st6 {
        fill: url(#linear-gradient3);
      }

      .st7 {
        fill: url(#linear-gradient6);
      }

      .st8 {
        fill: url(#linear-gradient);
      }
    </style>
    <linearGradient id="linear-gradient" x1="59" y1="-13030.12" x2="36.48" y2="-12976.23" gradientTransform="translate(0 13004.2)" gradientUnits="userSpaceOnUse">
      <stop offset="0" stop-color="#806020"/>
      <stop offset="1" stop-color="#e6c44a"/>
    </linearGradient>
    <linearGradient id="linear-gradient1" x1="73.24" y1="-13024.17" x2="50.71" y2="-12970.28" gradientTransform="translate(0 13004.2)" gradientUnits="userSpaceOnUse">
      <stop offset="0" stop-color="#806020"/>
      <stop offset="1" stop-color="#e6c44a"/>
    </linearGradient>
    <linearGradient id="linear-gradient2" x1="88.83" y1="-13017.66" x2="66.29" y2="-12963.77" gradientTransform="translate(0 13004.2)" gradientUnits="userSpaceOnUse">
      <stop offset="0" stop-color="#806020"/>
      <stop offset="1" stop-color="#e6c44a"/>
    </linearGradient>
    <linearGradient id="linear-gradient3" x1="98.08" y1="-13013.79" x2="75.55" y2="-12959.91" gradientTransform="translate(0 13004.2)" gradientUnits="userSpaceOnUse">
      <stop offset="0" stop-color="#806020"/>
      <stop offset="1" stop-color="#e6c44a"/>
    </linearGradient>
    <linearGradient id="linear-gradient4" x1="108.87" y1="-13009.28" x2="86.34" y2="-12955.39" gradientTransform="translate(0 13004.2)" gradientUnits="userSpaceOnUse">
      <stop offset="0" stop-color="#806020"/>
      <stop offset="1" stop-color="#e6c44a"/>
    </linearGradient>
    <linearGradient id="linear-gradient5" x1="123.8" y1="-13003.03" x2="101.27" y2="-12949.14" gradientTransform="translate(0 13004.2)" gradientUnits="userSpaceOnUse">
      <stop offset="0" stop-color="#806020"/>
      <stop offset="1" stop-color="#e6c44a"/>
    </linearGradient>
    <linearGradient id="linear-gradient6" x1="137.22" y1="-12997.43" x2="114.69" y2="-12943.54" gradientTransform="translate(0 13004.2)" gradientUnits="userSpaceOnUse">
      <stop offset="0" stop-color="#806020"/>
      <stop offset="1" stop-color="#e6c44a"/>
    </linearGradient>
    <linearGradient id="linear-gradient7" x1="150.78" y1="-12991.75" x2="128.25" y2="-12937.86" gradientTransform="translate(0 13004.2)" gradientUnits="userSpaceOnUse">
      <stop offset="0" stop-color="#806020"/>
      <stop offset="1" stop-color="#e6c44a"/>
    </linearGradient>
  </defs>
  <path class="st2" d="M30.43.53H2.63v1.36h19.07L1.89,39.44h27.8v-1.36H10.61L30.43.53Z"/>
  <path class="st8" d="M34,29.72V10.26h6.84c1.37,0,2.5.22,3.4.67.91.42,1.58,1.01,2.03,1.78.45.74.67,1.58.67,2.5s-.22,1.84-.67,2.5c-.42.67-.99,1.18-1.7,1.53-.68.35-1.41.57-2.19.64l.39-.28c.84.02,1.6.24,2.31.67.71.42,1.26,1,1.67,1.72.42.72.64,1.53.64,2.42s-.24,1.89-.72,2.7c-.48.8-1.19,1.44-2.15,1.92-.93.46-2.07.7-3.44.7h-7.07ZM36.34,27.78h4.48c1.32,0,2.33-.31,3.05-.92.74-.62,1.11-1.5,1.11-2.62s-.38-1.97-1.14-2.62c-.74-.67-1.77-1-3.09-1h-4.42v7.14h.01ZM36.34,18.76h4.34c1.26,0,2.22-.29,2.86-.9.67-.59,1-1.4,1-2.42s-.33-1.77-1-2.37c-.65-.59-1.63-.88-2.95-.88h-4.26v6.57Z"/>
  <path class="st1" d="M57.58,30.05c-1.33,0-2.55-.27-3.64-.8-1.07-.54-1.93-1.36-2.58-2.45-.65-1.11-.98-2.53-.98-4.26v-12.3h2.33v12.32c0,1.26.2,2.29.61,3.09.42.8,1.01,1.38,1.76,1.76.74.37,1.59.55,2.56.55s1.84-.19,2.56-.55c.72-.37,1.28-.95,1.7-1.76.41-.8.61-1.83.61-3.09v-12.32h2.33v12.3c0,1.72-.33,3.15-.98,4.26-.65,1.1-1.52,1.91-2.62,2.45s-2.32.8-3.67.8h0Z"/>
  <path class="st0" d="M74.8,30.05c-1.43,0-2.66-.26-3.73-.78-1.06-.52-1.87-1.24-2.45-2.17-.58-.93-.86-2-.86-3.23h2.45c0,.75.18,1.46.53,2.11.35.62.86,1.14,1.53,1.53.68.37,1.53.55,2.53.55s1.62-.14,2.23-.41c.62-.29,1.11-.7,1.41-1.19.33-.5.5-1.06.5-1.7s-.17-1.37-.5-1.84c-.32-.48-.75-.87-1.31-1.17-.55-.29-1.2-.55-1.95-.78-.72-.24-1.49-.5-2.28-.75-1.54-.52-2.66-1.17-3.4-1.95-.72-.78-1.08-1.79-1.08-3.03s.24-1.98.72-2.78c.5-.8,1.2-1.41,2.11-1.86.93-.46,2.02-.7,3.28-.7s2.32.24,3.23.7c.93.46,1.65,1.11,2.17,1.92.52.8.78,1.72.78,2.78h-2.45c0-.54-.14-1.06-.41-1.58-.28-.52-.71-.94-1.28-1.28-.55-.35-1.26-.53-2.11-.53-.71-.02-1.33.11-1.89.37-.54.24-.97.59-1.28,1.06-.29.46-.45,1.03-.45,1.7s.13,1.14.39,1.53c.28.39.67.72,1.17,1,.52.26,1.12.5,1.8.72s1.45.47,2.28.75c.94.32,1.78.71,2.5,1.17.74.45,1.32,1.01,1.72,1.72.42.71.64,1.6.64,2.7s-.25,1.8-.75,2.64c-.48.81-1.2,1.49-2.17,2s-2.18.78-3.64.78h.02Z"/>
  <path class="st6" d="M84.54,29.72V10.26h2.33v19.46h-2.33Z"/>
  <path class="st4" d="M90.87,29.72V10.26h2.33l10.37,15.6v-15.6h2.33v19.46h-2.33l-10.37-15.6v15.6h-2.33Z"/>
  <path class="st5" d="M109.91,29.72V10.26h12.04v1.92h-9.7v6.79h8.87v1.89h-8.87v6.96h9.7v1.92h-12.04Z"/>
  <path class="st7" d="M131.65,30.05c-1.43,0-2.66-.26-3.73-.78-1.06-.52-1.87-1.24-2.45-2.17s-.86-2-.86-3.23h2.45c0,.75.18,1.46.53,2.11.35.62.86,1.14,1.53,1.53.68.37,1.53.55,2.53.55s1.62-.14,2.23-.41c.62-.29,1.11-.7,1.41-1.19.33-.5.5-1.06.5-1.7s-.17-1.37-.5-1.84c-.32-.48-.75-.87-1.31-1.17s-1.2-.55-1.95-.78c-.72-.24-1.49-.5-2.28-.75-1.54-.52-2.66-1.17-3.4-1.95-.72-.78-1.08-1.79-1.08-3.03s.24-1.98.72-2.78c.5-.8,1.2-1.41,2.11-1.86.93-.46,2.02-.7,3.28-.7s2.32.24,3.23.7c.93.46,1.65,1.11,2.17,1.92.52.8.78,1.72.78,2.78h-2.45c0-.54-.14-1.06-.41-1.58-.28-.52-.71-.94-1.27-1.28-.55-.35-1.26-.53-2.11-.53-.71-.02-1.33.11-1.89.37-.54.24-.97.59-1.27,1.06-.29.46-.45,1.03-.45,1.7s.13,1.14.39,1.53c.28.39.67.72,1.17,1,.52.26,1.12.5,1.8.72s1.45.47,2.28.75c.94.32,1.78.71,2.5,1.17.74.45,1.32,1.01,1.72,1.72.42.71.64,1.6.64,2.7s-.25,1.8-.75,2.64c-.48.81-1.2,1.49-2.17,2-.97.52-2.18.78-3.64.78h0Z"/>
  <path class="st3" d="M147.59,30.05c-1.43,0-2.66-.26-3.73-.78-1.06-.52-1.87-1.24-2.45-2.17s-.86-2-.86-3.23h2.45c0,.75.18,1.46.53,2.11.35.62.86,1.14,1.53,1.53.68.37,1.53.55,2.53.55s1.62-.14,2.23-.41c.62-.29,1.11-.7,1.41-1.19.33-.5.5-1.06.5-1.7s-.17-1.37-.5-1.84c-.32-.48-.75-.87-1.31-1.17s-1.2-.55-1.95-.78c-.72-.24-1.49-.5-2.28-.75-1.54-.52-2.66-1.17-3.4-1.95-.72-.78-1.08-1.79-1.08-3.03s.24-1.98.72-2.78c.5-.8,1.2-1.41,2.11-1.86.93-.46,2.02-.7,3.28-.7s2.32.24,3.23.7c.93.46,1.65,1.11,2.17,1.92.52.8.78,1.72.78,2.78h-2.45c0-.54-.14-1.06-.41-1.58-.28-.52-.71-.94-1.28-1.28-.55-.35-1.26-.53-2.11-.53-.71-.02-1.33.11-1.89.37-.54.24-.97.59-1.28,1.06-.29.46-.45,1.03-.45,1.7s.13,1.14.39,1.53c.28.39.67.72,1.17,1,.52.26,1.12.5,1.8.72s1.45.47,2.28.75c.94.32,1.78.71,2.5,1.17.74.45,1.32,1.01,1.72,1.72.42.71.64,1.6.64,2.7s-.25,1.8-.75,2.64c-.48.81-1.2,1.49-2.17,2-.97.52-2.18.78-3.64.78h.02Z"/>
</svg>